Anton-Regular Italic.ufo
<glyph name="exclam" format="1">
  <advance width="469"/>
  <unicode hex="0021"/>
  <outline>
    <contour>
      <point x="-82" y="1" type="line"/>
      <point x="276" y="1" type="line"/>
      <point x="323" y="299" type="line"/>
      <point x="-35" y="299" type="line"/>
    </contour>
    <contour>
      <point x="63" y="479" type="line"/>
      <point x="281" y="479" type="line"/>
      <point x="553" y="1760" type="line"/>
      <point x="195" y="1760" type="line"/>
    </contour>
  </outline>
</glyph>
<glyph name="numbersign" format="1">
  <advance width="1119"/>
  <unicode hex="0023"/>
  <outline>
    <contour>
      <point x="-94" y="0" type="line"/>
      <point x="189" y="0" type="line"/>
      <point x="369" y="509" type="line"/>
      <point x="536" y="509" type="line"/>
      <point x="356" y="0" type="line"/>
      <point x="639" y="0" type="line"/>
      <point x="819" y="509" type="line"/>
      <point x="973" y="509" type="line"/>
      <point x="1009" y="741" type="line"/>
      <point x="901" y="741" type="line"/>
      <point x="952" y="886" type="line"/>
      <point x="1090" y="886" type="line"/>
      <point x="1127" y="1118" type="line"/>
      <point x="1034" y="1118" type="line"/>
      <point x="1202" y="1593" type="line"/>
      <point x="918" y="1593" type="line"/>
      <point x="750" y="1118" type="line"/>
      <point x="584" y="1118" type="line"/>
      <point x="752" y="1593" type="line"/>
      <point x="468" y="1593" type="line"/>
      <point x="300" y="1118" type="line"/>
      <point x="145" y="1118" type="line"/>
      <point x="108" y="886" type="line"/>
      <point x="218" y="886" type="line"/>
      <point x="167" y="741" type="line"/>
      <point x="27" y="741" type="line"/>
      <point x="-9" y="509" type="line"/>
      <point x="86" y="509" type="line"/>
    </contour>
    <contour>
      <point x="451" y="741" type="line"/>
      <point x="502" y="886" type="line"/>
      <point x="668" y="886" type="line"/>
      <point x="617" y="741" type="line"/>
    </contour>
  </outline>
</glyph>
<glyph name="asterisk" format="1">
  <advance width="926"/>
  <unicode hex="002A"/>
  <outline>
    <contour>
      <point x="332" y="741" type="line"/>
      <point x="564" y="741" type="line"/>
      <point x="576" y="1036" type="line"/>
      <point x="777" y="854" type="line"/>
      <point x="925" y="1054" type="line"/>
      <point x="668" y="1171" type="line"/>
      <point x="961" y="1280" type="line"/>
      <point x="876" y="1480" type="line"/>
      <point x="619" y="1307" type="line"/>
      <point x="699" y="1593" type="line"/>
      <point x="467" y="1593" type="line"/>
      <point x="464" y="1301" type="line"/>
      <point x="254" y="1480" type="line"/>
      <point x="107" y="1280" type="line"/>
      <point x="363" y="1171" type="line"/>
      <point x="71" y="1054" type="line"/>
      <point x="155" y="854" type="line"/>
      <point x="424" y="1043" type="line"/>
    </contour>
  </outline>
</glyph>
<glyph name="plus" format="1">
  <advance width="728"/>
  <unicode hex="002B"/>
  <outline>
    <contour>
      <point x="167" y="301" type="line"/>
      <point x="399" y="301" type="line"/>
      <point x="433" y="509" type="line"/>
      <point x="641" y="509" type="line"/>
      <point x="677" y="741" type="line"/>
      <point x="469" y="741" type="line"/>
      <point x="502" y="949" type="line"/>
      <point x="270" y="949" type="line"/>
      <point x="237" y="741" type="line"/>
      <point x="29" y="741" type="line"/>
      <point x="-7" y="509" type="line"/>
      <point x="201" y="509" type="line"/>
    </contour>
  </outline>
</glyph>
<glyph name="comma" format="1">
  <advance width="484"/>
  <unicode hex="002C"/>
  <outline>
    <contour>
      <point x="-49" y="-235" type="line"/>
      <point x="162" y="-235" type="line"/>
      <point x="304" y="10" type="line"/>
      <point x="349" y="299" type="line"/>
      <point x="-25" y="299" type="line"/>
      <point x="-72" y="1" type="line"/>
      <point x="55" y="1" type="line"/>
    </contour>
    <contour>
      <point x="140" y="131" type="move" name="_mid"/>
    </contour>
  </outline>
</glyph>
<glyph name="hyphen" format="1">
  <advance width="637"/>
  <unicode hex="002D"/>
  <outline>
    <contour>
      <point x="14" y="509" type="line"/>
      <point x="530" y="509" type="line"/>
      <point x="566" y="741" type="line"/>
      <point x="50" y="741" type="line"/>
    </contour>
    <contour>
      <point x="300" y="628" type="move" name="_mid"/>
    </contour>
  </outline>
</glyph>
<glyph name="six" format="1">
  <advance width="1012"/>
  <unicode hex="0036"/>
  <outline>
    <contour>
      <point x="366" y="-16" type="curve" smooth="yes"/>
      <point x="710" y="-16"/>
      <point x="863" y="217"/>
      <point x="918" y="569" type="curve" smooth="yes"/>
      <point x="972" y="916"/>
      <point x="928" y="1092"/>
      <point x="637" y="1092" type="curve" smooth="yes"/>
      <point x="541" y="1092"/>
      <point x="467" y="1050"/>
      <point x="423" y="988" type="curve"/>
      <point x="480" y="1341" type="line" smooth="yes"/>
      <point x="493" y="1422"/>
      <point x="525" y="1467"/>
      <point x="604" y="1467" type="curve" smooth="yes"/>
      <point x="689" y="1467"/>
      <point x="677" y="1365"/>
      <point x="663" y="1277" type="curve" smooth="yes"/>
      <point x="656" y="1241" type="line"/>
      <point x="995" y="1241" type="line"/>
      <point x="1026" y="1431" type="line" smooth="yes"/>
      <point x="1062" y="1660"/>
      <point x="881" y="1776"/>
      <point x="659" y="1776" type="curve" smooth="yes"/>
      <point x="226" y="1776"/>
      <point x="133" y="1512"/>
      <point x="56" y="1025" type="curve" smooth="yes"/>
      <point x="-20" y="549" type="line" smooth="yes"/>
      <point x="-79" y="172"/>
      <point x="-1" y="-16"/>
    </contour>
    <contour>
      <point x="405" y="308" type="curve" smooth="yes"/>
      <point x="346" y="308"/>
      <point x="323" y="351"/>
      <point x="337" y="438" type="curve" smooth="yes"/>
      <point x="371" y="656" type="line" smooth="yes"/>
      <point x="385" y="739"/>
      <point x="422" y="781"/>
      <point x="484" y="781" type="curve" smooth="yes"/>
      <point x="538" y="781"/>
      <point x="558" y="733"/>
      <point x="542" y="637" type="curve" smooth="yes"/>
      <point x="520" y="495" type="line" smooth="yes"/>
      <point x="502" y="386"/>
      <point x="488" y="308"/>
    </contour>
  </outline>
</glyph>
<glyph name="eight" format="1">
  <advance width="1012"/>
  <unicode hex="0038"/>
  <outline>
    <contour>
      <point x="342" y="-19" type="curve" smooth="yes"/>
      <point x="673" y="-19"/>
      <point x="832" y="178"/>
      <point x="887" y="525" type="curve"/>
      <point x="889" y="535"/>
      <point x="892" y="550"/>
      <point x="895" y="569" type="curve" smooth="yes"/>
      <point x="927" y="776"/>
      <point x="936" y="918"/>
      <point x="809" y="984" type="curve"/>
      <point x="936" y="1034"/>
      <point x="985" y="1152"/>
      <point x="1011" y="1321" type="curve" smooth="yes"/>
      <point x="1062" y="1644"/>
      <point x="932" y="1782"/>
      <point x="626" y="1782" type="curve" smooth="yes"/>
      <point x="327" y="1782"/>
      <point x="145" y="1647"/>
      <point x="96" y="1335" type="curve" smooth="yes"/>
      <point x="89" y="1289" type="line" smooth="yes"/>
      <point x="65" y="1135"/>
      <point x="90" y="1030"/>
      <point x="190" y="986" type="curve"/>
      <point x="66" y="927"/>
      <point x="14" y="820"/>
      <point x="-14" y="642" type="curve" smooth="yes"/>
      <point x="-32" y="525" type="line" smooth="yes"/>
      <point x="-87" y="178"/>
      <point x="11" y="-19"/>
    </contour>
    <contour>
      <point x="397" y="329" type="curve" smooth="yes"/>
      <point x="333" y="329"/>
      <point x="310" y="387"/>
      <point x="328" y="503" type="curve" smooth="yes"/>
      <point x="330" y="514"/>
      <point x="337" y="550"/>
      <point x="338" y="560" type="curve" smooth="yes"/>
      <point x="341" y="575" type="line"/>
      <point x="349" y="674"/>
      <point x="382" y="815"/>
      <point x="473" y="815" type="curve" smooth="yes"/>
      <point x="564" y="815"/>
      <point x="548" y="686"/>
      <point x="533" y="592" type="curve" smooth="yes"/>
      <point x="530" y="571"/>
      <point x="524" y="525"/>
      <point x="520" y="503" type="curve" smooth="yes"/>
      <point x="502" y="387"/>
      <point x="461" y="329"/>
    </contour>
    <contour>
      <point x="523" y="1134" type="curve" smooth="yes"/>
      <point x="461" y="1134"/>
      <point x="439" y="1190"/>
      <point x="457" y="1302" type="curve" smooth="yes"/>
      <point x="469" y="1377"/>
      <point x="503" y="1458"/>
      <point x="575" y="1458" type="curve" smooth="yes"/>
      <point x="647" y="1458"/>
      <point x="655" y="1377"/>
      <point x="643" y="1302" type="curve" smooth="yes"/>
      <point x="625" y="1190"/>
      <point x="585" y="1134"/>
    </contour>
  </outline>
</glyph>
<glyph name="colon" format="1">
  <advance width="495"/>
  <unicode hex="003A"/>
  <outline>
    <contour>
      <point x="-15" y="237" type="line"/>
      <point x="343" y="237" type="line"/>
      <point x="389" y="535" type="line"/>
      <point x="31" y="535" type="line"/>
    </contour>
    <contour>
      <point x="101" y="976" type="line"/>
      <point x="459" y="976" type="line"/>
      <point x="506" y="1274" type="line"/>
      <point x="148" y="1274" type="line"/>
    </contour>
  </outline>
</glyph>
<glyph name="semicolon" format="1">
  <advance width="502"/>
  <unicode hex="003B"/>
  <outline>
    <contour>
      <point x="17" y="0" type="line"/>
      <point x="228" y="0" type="line"/>
      <point x="368" y="245" type="line"/>
      <point x="413" y="534" type="line"/>
      <point x="39" y="534" type="line"/>
      <point x="-7" y="236" type="line"/>
      <point x="120" y="236" type="line"/>
    </contour>
    <contour>
      <point x="109" y="976" type="line"/>
      <point x="467" y="976" type="line"/>
      <point x="514" y="1274" type="line"/>
      <point x="156" y="1274" type="line"/>
    </contour>
  </outline>
</glyph>
<glyph name="j" format="1">
  <advance width="538"/>
  <unicode hex="006A"/>
  <outline>
    <contour>
      <point x="-14" y="-176" type="curve" smooth="yes"/>
      <point x="192" y="-176"/>
      <point x="289" y="-47"/>
      <point x="322" y="166" type="curve" smooth="yes"/>
      <point x="533" y="1500" type="line"/>
      <point x="175" y="1500" type="line"/>
      <point x="-37" y="156" type="line" smooth="yes"/>
      <point x="-44" y="115"/>
      <point x="-54" y="85"/>
      <point x="-92" y="85" type="curve" smooth="yes"/>
      <point x="-103" y="85"/>
      <point x="-113" y="87"/>
      <point x="-123" y="90" type="curve"/>
      <point x="-162" y="-150" type="line"/>
      <point x="-139" y="-167"/>
      <point x="-91" y="-176"/>
    </contour>
    <contour>
      <point x="190" y="1600" type="line"/>
      <point x="548" y="1600" type="line"/>
      <point x="588" y="1850" type="line"/>
      <point x="230" y="1850" type="line"/>
    </contour>
  </outline>
</glyph>
<glyph name="y" format="1">
  <advance width="944"/>
  <unicode hex="0079"/>
  <outline>
    <contour>
      <point x="-113" y="-250" type="line"/>
      <point x="291" y="-250" type="line" smooth="yes"/>
      <point x="420" y="-250"/>
      <point x="477" y="-191"/>
      <point x="515" y="-78" type="curve" smooth="yes"/>
      <point x="1042" y="1500" type="line"/>
      <point x="697" y="1500" type="line"/>
      <point x="501" y="767" type="line" smooth="yes"/>
      <point x="404" y="395" type="line"/>
      <point x="429" y="767" type="line" smooth="yes"/>
      <point x="479" y="1500" type="line"/>
      <point x="136" y="1500" type="line"/>
      <point x="139" y="31" type="line" smooth="yes"/>
      <point x="139" y="0"/>
      <point x="137" y="-23"/>
      <point x="95" y="-23" type="curve" smooth="yes"/>
      <point x="-77" y="-23" type="line"/>
    </contour>
    <contour>
      <point x="591" y="1500" type="move" name="top"/>
    </contour>
  </outline>
</glyph>
<glyph name="braceleft" format="1">
  <advance width="756.003"/>
  <unicode hex="007B"/>
  <outline>
    <contour>
      <point x="466" y="-188" type="curve"/>
      <point x="513" y="79" type="line"/>
      <point x="442" y="84"/>
      <point x="376" y="92"/>
      <point x="389" y="163" type="curve" smooth="yes"/>
      <point x="455" y="538" type="line" smooth="yes"/>
      <point x="489" y="732"/>
      <point x="396" y="791"/>
      <point x="286" y="818" type="curve"/>
      <point x="405" y="844"/>
      <point x="519" y="903"/>
      <point x="553" y="1097" type="curve" smooth="yes"/>
      <point x="619" y="1472" type="line" smooth="yes"/>
      <point x="632" y="1543"/>
      <point x="700" y="1551"/>
      <point x="773" y="1556" type="curve"/>
      <point x="820" y="1823" type="line"/>
      <point x="439" y="1815"/>
      <point x="314" y="1734"/>
      <point x="264" y="1455" type="curve" smooth="yes"/>
      <point x="205" y="1120" type="line" smooth="yes"/>
      <point x="182" y="987"/>
      <point x="155" y="930"/>
      <point x="30" y="916" type="curve"/>
      <point x="-4" y="719" type="line"/>
      <point x="115" y="705"/>
      <point x="122" y="648"/>
      <point x="99" y="515" type="curve" smooth="yes"/>
      <point x="40" y="180" type="line" smooth="yes"/>
      <point x="-10" y="-99"/>
      <point x="87" y="-180"/>
    </contour>
  </outline>
</glyph>
<glyph name="bar" format="1">
  <advance width="443"/>
  <unicode hex="007C"/>
  <outline>
    <contour>
      <point x="-139" y="-84" type="line"/>
      <point x="180" y="-84" type="line"/>
      <point x="501" y="1953" type="line"/>
      <point x="182" y="1953" type="line"/>
    </contour>
  </outline>
</glyph>
<glyph name="exclamdown" format="1">
  <advance width="464"/>
  <unicode hex="00A1"/>
  <outline>
    <contour>
      <point x="-102" y="-108" type="line"/>
      <point x="256" y="-108" type="line"/>
      <point x="412" y="1173" type="line"/>
      <point x="194" y="1173" type="line"/>
    </contour>
    <contour>
      <point x="156" y="1353" type="line"/>
      <point x="514" y="1353" type="line"/>
      <point x="566" y="1651" type="line"/>
      <point x="208" y="1651" type="line"/>
    </contour>
  </outline>
</glyph>
<glyph name="registered" format="1">
  <advance width="1382"/>
  <unicode hex="00AE"/>
  <outline>
    <contour>
      <point x="417" y="430" type="line"/>
      <point x="607" y="430" type="line"/>
      <point x="669" y="818" type="line"/>
      <point x="719" y="818"/>
      <point x="739" y="812"/>
      <point x="732" y="762" type="curve" smooth="yes"/>
      <point x="679" y="430" type="line"/>
      <point x="863" y="430" type="line"/>
      <point x="914" y="751" type="line" smooth="yes"/>
      <point x="925" y="822"/>
      <point x="905" y="863"/>
      <point x="854" y="873" type="curve"/>
      <point x="930" y="896"/>
      <point x="959" y="951"/>
      <point x="974" y="1043" type="curve" smooth="yes"/>
      <point x="996" y="1187"/>
      <point x="986" y="1282"/>
      <point x="841" y="1282" type="curve" smooth="yes"/>
      <point x="552" y="1282" type="line"/>
    </contour>
    <contour>
      <point x="625" y="334" type="curve" smooth="yes"/>
      <point x="336" y="334"/>
      <point x="164" y="571"/>
      <point x="209" y="862" type="curve" smooth="yes"/>
      <point x="255" y="1153"/>
      <point x="501" y="1390"/>
      <point x="790" y="1390" type="curve" smooth="yes"/>
      <point x="1079" y="1390"/>
      <point x="1251" y="1153"/>
      <point x="1205" y="862" type="curve" smooth="yes"/>
      <point x="1160" y="571"/>
      <point x="914" y="334"/>
    </contour>
    <contour>
      <point x="604" y="205" type="curve" smooth="yes"/>
      <point x="977" y="205"/>
      <point x="1306" y="489"/>
      <point x="1364" y="862" type="curve" smooth="yes"/>
      <point x="1423" y="1235"/>
      <point x="1184" y="1519"/>
      <point x="811" y="1519" type="curve" smooth="yes"/>
      <point x="438" y="1519"/>
      <point x="109" y="1235"/>
      <point x="50" y="862" type="curve" smooth="yes"/>
      <point x="-8" y="489"/>
      <point x="231" y="205"/>
    </contour>
    <contour>
      <point x="693" y="965" type="line"/>
      <point x="718" y="1124" type="line"/>
      <point x="788" y="1124"/>
      <point x="801" y="1114"/>
      <point x="790" y="1043" type="curve" smooth="yes"/>
      <point x="782" y="991"/>
      <point x="766" y="965"/>
      <point x="741" y="965" type="curve" smooth="yes"/>
    </contour>
  </outline>
</glyph>
<glyph name="degree" format="1">
  <advance width="796"/>
  <unicode hex="00B0"/>
  <outline>
    <contour>
      <point x="440" y="1112" type="curve" smooth="yes"/>
      <point x="351" y="1112"/>
      <point x="309" y="1182"/>
      <point x="322" y="1269" type="curve" smooth="yes"/>
      <point x="336" y="1356"/>
      <point x="401" y="1426"/>
      <point x="490" y="1426" type="curve" smooth="yes"/>
      <point x="579" y="1426"/>
      <point x="620" y="1356"/>
      <point x="606" y="1269" type="curve" smooth="yes"/>
      <point x="593" y="1182"/>
      <point x="529" y="1112"/>
    </contour>
    <contour>
      <point x="410" y="931" type="curve" smooth="yes"/>
      <point x="624" y="931"/>
      <point x="785" y="1058"/>
      <point x="817" y="1269" type="curve" smooth="yes"/>
      <point x="851" y="1480"/>
      <point x="731" y="1607"/>
      <point x="517" y="1607" type="curve" smooth="yes"/>
      <point x="303" y="1607"/>
      <point x="144" y="1480"/>
      <point x="110" y="1269" type="curve" smooth="yes"/>
      <point x="77" y="1057"/>
      <point x="196" y="931"/>
    </contour>
  </outline>
</glyph>
<glyph name="plusminus" format="1">
  <advance width="734"/>
  <unicode hex="00B1"/>
  <outline>
    <contour>
      <point x="211" y="414" type="line"/>
      <point x="443" y="414" type="line"/>
      <point x="477" y="622" type="line"/>
      <point x="685" y="622" type="line"/>
      <point x="721" y="854" type="line"/>
      <point x="513" y="854" type="line"/>
      <point x="546" y="1062" type="line"/>
      <point x="314" y="1062" type="line"/>
      <point x="281" y="854" type="line"/>
      <point x="73" y="854" type="line"/>
      <point x="37" y="622" type="line"/>
      <point x="245" y="622" type="line"/>
    </contour>
    <contour>
      <point x="-21" y="-1" type="line"/>
      <point x="495" y="-1" type="line"/>
      <point x="532" y="231" type="line"/>
      <point x="16" y="231" type="line"/>
    </contour>
  </outline>
</glyph>
<glyph name="periodcentered" format="1">
  <advance width="480"/>
  <unicode hex="00B7"/>
  <outline>
    <contour>
      <point x="58" y="723" type="line"/>
      <point x="376" y="723" type="line"/>
      <point x="423" y="1021" type="line"/>
      <point x="105" y="1021" type="line"/>
    </contour>
    <contour>
      <point x="248" y="878" type="move" name="_mid"/>
    </contour>
  </outline>
</glyph>
<glyph name="onehalf" format="1">
  <advance width="1560"/>
  <unicode hex="00BD"/>
  <outline>
    <contour>
      <point x="801" y="-1" type="line"/>
      <point x="1320" y="-1" type="line"/>
      <point x="1349" y="182" type="line"/>
      <point x="1076" y="182" type="line"/>
      <point x="1194" y="355"/>
      <point x="1399" y="453"/>
      <point x="1439" y="712" type="curve" smooth="yes"/>
      <point x="1466" y="879"/>
      <point x="1383" y="974"/>
      <point x="1218" y="974" type="curve" smooth="yes"/>
      <point x="1007" y="974"/>
      <point x="935" y="864"/>
      <point x="901" y="646" type="curve" smooth="yes"/>
      <point x="894" y="586" type="line"/>
      <point x="1104" y="586" type="line"/>
      <point x="1123" y="705" type="line" smooth="yes"/>
      <point x="1132" y="763"/>
      <point x="1153" y="792"/>
      <point x="1187" y="792" type="curve" smooth="yes"/>
      <point x="1222" y="792"/>
      <point x="1236" y="764"/>
      <point x="1227" y="709" type="curve" smooth="yes"/>
      <point x="1217" y="640"/>
      <point x="1191" y="586"/>
      <point x="1150" y="546" type="curve" smooth="yes"/>
      <point x="990" y="383"/>
      <point x="842" y="258"/>
      <point x="809" y="46" type="curve" smooth="yes"/>
    </contour>
    <contour>
      <point x="96" y="696" type="line"/>
      <point x="306" y="696" type="line"/>
      <point x="456" y="1647" type="line"/>
      <point x="297" y="1647" type="line"/>
      <point x="288" y="1585"/>
      <point x="163" y="1527"/>
      <point x="105" y="1527" type="curve"/>
      <point x="104" y="1523"/>
      <point x="103" y="1509"/>
      <point x="99" y="1484" type="curve" smooth="yes"/>
      <point x="94" y="1453"/>
      <point x="88" y="1417"/>
      <point x="80" y="1374" type="curve"/>
      <point x="123" y="1374"/>
      <point x="166" y="1384"/>
      <point x="207" y="1404" type="curve"/>
    </contour>
    <contour>
      <point x="144" y="0" type="line"/>
      <point x="327" y="0" type="line"/>
      <point x="1277" y="1767" type="line"/>
      <point x="993" y="1767" type="line"/>
    </contour>
  </outline>
</glyph>
<glyph name="threequarters" format="1">
  <advance width="1580"/>
  <unicode hex="00BE"/>
  <outline>
    <contour>
      <point x="220" y="635" type="curve" smooth="yes"/>
      <point x="412" y="635"/>
      <point x="505" y="743"/>
      <point x="536" y="935" type="curve" smooth="yes"/>
      <point x="557" y="1066"/>
      <point x="556" y="1132"/>
      <point x="478" y="1170" type="curve"/>
      <point x="552" y="1194"/>
      <point x="584" y="1258"/>
      <point x="598" y="1351" type="curve" smooth="yes"/>
      <point x="625" y="1521"/>
      <point x="554" y="1606"/>
      <point x="386" y="1606" type="curve" smooth="yes"/>
      <point x="212" y="1606"/>
      <point x="119" y="1532"/>
      <point x="89" y="1351" type="curve" smooth="yes"/>
      <point x="85" y="1317" type="line"/>
      <point x="289" y="1317" type="line"/>
      <point x="301" y="1373"/>
      <point x="299" y="1430"/>
      <point x="360" y="1430" type="curve" smooth="yes"/>
      <point x="392" y="1430"/>
      <point x="403" y="1403"/>
      <point x="395" y="1349" type="curve" smooth="yes"/>
      <point x="384" y="1279"/>
      <point x="344" y="1254"/>
      <point x="275" y="1254" type="curve"/>
      <point x="248" y="1081" type="line"/>
      <point x="253" y="1082"/>
      <point x="259" y="1082"/>
      <point x="268" y="1082" type="curve" smooth="yes"/>
      <point x="344" y="1082"/>
      <point x="341" y="1011"/>
      <point x="329" y="935" type="curve" smooth="yes"/>
      <point x="318" y="865"/>
      <point x="310" y="813"/>
      <point x="259" y="813" type="curve" smooth="yes"/>
      <point x="211" y="813"/>
      <point x="208" y="851"/>
      <point x="216" y="903" type="curve" smooth="yes"/>
      <point x="231" y="1004" type="line"/>
      <point x="29" y="1004" type="line"/>
      <point x="14" y="904" type="line" smooth="yes"/>
      <point x="-14" y="725"/>
      <point x="46" y="635"/>
    </contour>
    <contour>
      <point x="1114" y="-1" type="line"/>
      <point x="1321" y="-1" type="line"/>
      <point x="1346" y="151" type="line"/>
      <point x="1385" y="151" type="line"/>
      <point x="1412" y="322" type="line"/>
      <point x="1373" y="322" type="line"/>
      <point x="1470" y="941" type="line"/>
      <point x="1147" y="941" type="line"/>
      <point x="859" y="300" type="line"/>
      <point x="836" y="151" type="line"/>
      <point x="1139" y="151" type="line"/>
    </contour>
    <contour>
      <point x="264" y="0" type="line"/>
      <point x="447" y="0" type="line"/>
      <point x="1397" y="1767" type="line"/>
      <point x="1113" y="1767" type="line"/>
    </contour>
    <contour>
      <point x="1026" y="322" type="line"/>
      <point x="1236" y="777" type="line"/>
      <point x="1166" y="322" type="line"/>
    </contour>
  </outline>
</glyph>
<glyph name="florin" format="1">
  <advance width="620"/>
  <unicode hex="0192"/>
  <outline>
    <contour>
      <point x="104" y="-47" type="curve" smooth="yes"/>
      <point x="265" y="-47"/>
      <point x="359" y="34"/>
      <point x="385" y="195" type="curve" smooth="yes"/>
      <point x="509" y="986" type="line"/>
      <point x="600" y="986" type="line"/>
      <point x="644" y="1263" type="line"/>
      <point x="546" y="1263" type="line"/>
      <point x="549" y="1281" type="line" smooth="yes"/>
      <point x="556" y="1332"/>
      <point x="567" y="1362"/>
      <point x="616" y="1362" type="curve" smooth="yes"/>
      <point x="626" y="1362"/>
      <point x="640" y="1360"/>
      <point x="658" y="1357" type="curve"/>
      <point x="693" y="1578" type="line"/>
      <point x="646" y="1597"/>
      <point x="579" y="1607"/>
      <point x="494" y="1607" type="curve" smooth="yes"/>
      <point x="333" y="1607"/>
      <point x="239" y="1526"/>
      <point x="214" y="1365" type="curve" smooth="yes"/>
      <point x="198" y="1263" type="line"/>
      <point x="113" y="1263" type="line"/>
      <point x="69" y="986" type="line"/>
      <point x="154" y="986" type="line"/>
      <point x="52" y="297" type="line"/>
      <point x="50" y="279" type="line" smooth="yes"/>
      <point x="42" y="228"/>
      <point x="31" y="198"/>
      <point x="-18" y="198" type="curve" smooth="yes"/>
      <point x="-28" y="198"/>
      <point x="-42" y="200"/>
      <point x="-60" y="203" type="curve"/>
      <point x="-96" y="-18" type="line"/>
      <point x="-47" y="-37"/>
      <point x="19" y="-47"/>
    </contour>
  </outline>
</glyph>
<glyph name="uni02C9" format="1">
  <advance width="600"/>
  <unicode hex="02C9"/>
  <outline>
    <contour>
      <point x="91" y="1598" type="line"/>
      <point x="741" y="1598" type="line"/>
      <point x="765" y="1751" type="line"/>
      <point x="115" y="1751" type="line"/>
    </contour>
  </outline>
</glyph>
<glyph name="commaturnedabovecomb" format="1">
  <advance width="600"/>
  <unicode hex="0312"/>
  <outline>
    <contour>
      <point x="279" y="1644" type="line"/>
      <point x="653" y="1644" type="line"/>
      <point x="700" y="1942" type="line"/>
      <point x="573" y="1942" type="line"/>
      <point x="677" y="2178" type="line"/>
      <point x="466" y="2178" type="line"/>
      <point x="324" y="1933" type="line"/>
    </contour>
    <contour>
      <point x="419" y="1500" type="move" name="_top"/>
    </contour>
  </outline>
</glyph>
<glyph name="Sigma" format="1">
  <advance width="820.002"/>
  <unicode hex="03A3"/>
  <outline>
    <contour>
      <point x="-138" y="-119" type="line"/>
      <point x="595" y="-119" type="line"/>
      <point x="647" y="176" type="line"/>
      <point x="239" y="176" type="line"/>
      <point x="653" y="790" type="line"/>
      <point x="666" y="866" type="line"/>
      <point x="463" y="1444" type="line"/>
      <point x="855" y="1444" type="line"/>
      <point x="911" y="1760" type="line"/>
      <point x="194" y="1760" type="line"/>
      <point x="140" y="1455" type="line"/>
      <point x="365" y="822" type="line"/>
      <point x="-90" y="149" type="line"/>
    </contour>
  </outline>
</glyph>
<glyph name="mu" format="1">
  <advance width="1003"/>
  <unicode hex="03BC"/>
  <outline>
    <contour>
      <point x="-78" y="-186" type="line"/>
      <point x="281" y="-186" type="line"/>
      <point x="396" y="541" type="line"/>
      <point x="37" y="541" type="line"/>
    </contour>
    <component base="u"/>
  </outline>
</glyph>
<glyph name="quotedblleft" format="1">
  <advance width="950"/>
  <unicode hex="201C"/>
  <outline>
    <contour>
      <point x="89" y="1226" type="line"/>
      <point x="463" y="1226" type="line"/>
      <point x="511" y="1524" type="line"/>
      <point x="384" y="1524" type="line"/>
      <point x="487" y="1760" type="line"/>
      <point x="276" y="1760" type="line"/>
      <point x="135" y="1515" type="line"/>
    </contour>
    <contour>
      <point x="558" y="1226" type="line"/>
      <point x="932" y="1226" type="line"/>
      <point x="980" y="1524" type="line"/>
      <point x="853" y="1524" type="line"/>
      <point x="956" y="1760" type="line"/>
      <point x="745" y="1760" type="line"/>
      <point x="604" y="1515" type="line"/>
    </contour>
  </outline>
</glyph>
<glyph name="trademark" format="1">
  <advance width="1894"/>
  <unicode hex="2122"/>
  <outline>
    <contour>
      <point x="673" y="553" type="line"/>
      <point x="929" y="553" type="line"/>
      <point x="1066" y="1424" type="line"/>
      <point x="1076" y="553" type="line"/>
      <point x="1316" y="553" type="line"/>
      <point x="1591" y="1424" type="line"/>
      <point x="1454" y="553" type="line"/>
      <point x="1713" y="553" type="line"/>
      <point x="1903" y="1760" type="line"/>
      <point x="1494" y="1760" type="line"/>
      <point x="1283" y="1130" type="line"/>
      <point x="1269" y="1760" type="line"/>
      <point x="863" y="1760" type="line"/>
    </contour>
    <contour>
      <point x="138" y="553" type="line"/>
      <point x="405" y="553" type="line"/>
      <point x="559" y="1528" type="line"/>
      <point x="718" y="1528" type="line"/>
      <point x="754" y="1760" type="line"/>
      <point x="170" y="1760" type="line"/>
      <point x="134" y="1528" type="line"/>
      <point x="292" y="1528" type="line"/>
    </contour>
  </outline>
</glyph>
<glyph name="product" format="1">
  <advance width="990"/>
  <unicode hex="220F"/>
  <outline>
    <contour>
      <point x="-95" y="0" type="line"/>
      <point x="255" y="0" type="line"/>
      <point x="484" y="1459" type="line"/>
      <point x="650" y="1459" type="line"/>
      <point x="421" y="0" type="line"/>
      <point x="771" y="0" type="line"/>
      <point x="1048" y="1760" type="line"/>
      <point x="182" y="1760" type="line"/>
    </contour>
  </outline>
</glyph>
<glyph name="greaterequal" format="1">
  <advance width="661"/>
  <unicode hex="2265"/>
  <outline>
    <contour>
      <point x="-1" y="292" type="line"/>
      <point x="623" y="637" type="line"/>
      <point x="688" y="1051" type="line"/>
      <point x="172" y="1392" type="line"/>
      <point x="115" y="1033" type="line"/>
      <point x="427" y="841" type="line"/>
      <point x="55" y="650" type="line"/>
    </contour>
    <contour>
      <point x="-21" y="0" type="line"/>
      <point x="495" y="0" type="line"/>
      <point x="532" y="232" type="line"/>
      <point x="16" y="232" type="line"/>
    </contour>
  </outline>
</glyph>
